<svg xmlns="http://www.w3.org/2000/svg" width="51.408" height="40.33" viewBox="0 0 51.408 40.33">
  <path id="abicon4" d="M49.106,39.33l-29.381,0-.037,0h0l-18.371,0H1.3A1.4,1.4,0,0,1,.186,38.8a1.046,1.046,0,0,1-.117-.954,1.275,1.275,0,0,1,.26-.408c.186-.227.316-.343.5-.343H3.886V27.113H.932a.76.76,0,0,1-.565-.245,2.381,2.381,0,0,1-.355-1.763c.236-4.292,3.274-6.863,6.212-9.351.425-.359.864-.731,1.283-1.1,2.332-2.048,4.726-4.1,7.041-6.09,3-2.575,6.1-5.236,9.1-7.909a.325.325,0,0,1,.027-.023A2.561,2.561,0,0,1,25.2,0a2.612,2.612,0,0,1,1.54.632l.025.02,7.47,6.431c.079.06.154.128.227.194a2.579,2.579,0,0,0,.247.206.453.453,0,0,1,.039.031c1.842,1.685,3.6,3.184,5.294,4.633,4.76,4.065,8.519,7.277,10.079,11.152a.388.388,0,0,1,.022.076l.258,1.439a.43.43,0,0,1,.005.068V26.24a.387.387,0,0,1-.094.254l-.041.048c-.274.324-.5.572-.787.572H46.534v9.981h3.052c.228,0,.349.155.552.411.043.055.107.137.133.164a.387.387,0,0,1,.139.3v.485a.389.389,0,0,1-.072.225,1.5,1.5,0,0,1-1.225.653ZM42.136,32.1c.1.061.52.521.52.775v4.216H44.3V27.113H38.78V35.5c0,.5-.459.852-1.116.852S36.549,36,36.549,35.5V27.113H34.9v9.981h5.523V32.879a.855.855,0,0,1,.418-.7,1.367,1.367,0,0,1,.738-.22A1.072,1.072,0,0,1,42.136,32.1ZM17.748,37.094H32.672V27.113H17.748Zm-3.877,0h1.646V27.113H13.871ZM9.473,32.1c.1.061.521.521.521.775v4.216h1.646V27.113H6.117v9.981H7.763V32.879a.856.856,0,0,1,.418-.7,1.371,1.371,0,0,1,.738-.22A1.069,1.069,0,0,1,9.473,32.1ZM42.708,19.077c.519,0,1.05.535,1.551,1.084l.043.048a8.407,8.407,0,0,1,2.2,4.674h1.651A8.587,8.587,0,0,0,45.2,19.589c-1.967-1.888-4.9-4.359-7.74-6.747-1.747-1.471-3.553-2.992-5.069-4.324-.339-.26-.717-.612-1.084-.951a8.56,8.56,0,0,0-1.191-1l-9.895.047L4.782,20.023a8.292,8.292,0,0,0-2.508,4.859H3.921a8.283,8.283,0,0,1,2.146-4.622c.041-.045.084-.095.129-.147.373-.428.882-1.013,1.5-1.013a1.059,1.059,0,0,1,.79.376c.76.821.006,1.522-.4,1.9a3.508,3.508,0,0,0-.312.313,6.425,6.425,0,0,0-1.615,3.192h15.17V19.989a.926.926,0,0,1,.385-.771A1.233,1.233,0,0,1,22.441,19a1,1,0,0,1,1.122.891v4.991h.677V19.989a.926.926,0,0,1,.385-.771A1.236,1.236,0,0,1,25.349,19a1,1,0,0,1,1.122.891v4.991h4.554V19.989a.926.926,0,0,1,.385-.771A1.233,1.233,0,0,1,32.133,19a1,1,0,0,1,1.122.891v4.991H44.24a5.667,5.667,0,0,0-.645-1.908,7.567,7.567,0,0,0-1-1.282,10.454,10.454,0,0,1-.877-1.066c-.007-.011-.014-.023-.021-.034a.889.889,0,0,1,.055-.882,1.238,1.238,0,0,1,.942-.632ZM22.952,4.335h4.532L25.241,2.341Z" transform="translate(0.498 0.5)" fill="#654D26" stroke="rgba(0,0,0,0)" stroke-miterlimit="10" stroke-width="1"/>
</svg>
