<svg xmlns="http://www.w3.org/2000/svg" width="46.64" height="47.992" viewBox="0 0 46.64 47.992">
  <path id="abicon1" d="M28.287,46.663c-1.569-.318-3.149-1.147-4.715-1.256-2.652-.183-4.748,1.188-7.323,1.479a14,14,0,0,1-4.082-.1C3.213,45.5,2.223,34.685,8.726,27.14a19.167,19.167,0,0,1,10.794-6.529,14.538,14.538,0,0,1,2.107-.357,14.193,14.193,0,0,1,4.542.359,18.812,18.812,0,0,1,11.345,7.329c.359.446.695.9,1,1.363.558.84,2.093,3.519,2.063,4.412,0,.013,0,.024,0,.037a12.3,12.3,0,0,1,.484,5.157c.412,1.278-1.215,4.046-1.814,4.765a9.763,9.763,0,0,1-7.791,3.316A16.031,16.031,0,0,1,28.287,46.663Zm-4.713-3.746a9.811,9.811,0,0,1,2.181.4,26.665,26.665,0,0,1,3.248.86c10.779,1.854,11.916-8.273,6.172-15.127a19.617,19.617,0,0,0-4-3.654C25,21.4,16.965,22.036,11.04,28.576c-2.2,2.427-4.289,6.519-4,10a7.574,7.574,0,0,0,.318,1.579,5.914,5.914,0,0,0,2.87,3.342,8.232,8.232,0,0,0,1.273.577,11.548,11.548,0,0,0,4.974.1c.9-.151,2.489-.928,3.553-.847a13.125,13.125,0,0,1,3.078-.424Q23.338,42.905,23.574,42.917ZM34.732,20.885c-1.924-5.324,1.815-9.641,3.636-14.366a1.912,1.912,0,0,1,1.263-.741,2.033,2.033,0,0,1,1.9,1.015,61.2,61.2,0,0,1,3.53,7.747,9.144,9.144,0,0,1-.94,8.009,5.071,5.071,0,0,1-4.191,2.457A5.778,5.778,0,0,1,34.732,20.885Zm2-2.161c.319,2.33,2.567,5.287,4.873,3.051,2.066-2,2.006-7.545-.787-8.795a2.552,2.552,0,0,0-1.044-.243C37.436,12.737,36.451,16.715,36.727,18.725ZM.054,16.631c.2-1.964,2.791-7.509,3.814-9.452A4.507,4.507,0,0,1,4.4,6.3a1.833,1.833,0,0,1,2.9.387,59.07,59.07,0,0,1,3.637,7.972,8.75,8.75,0,0,1,.158,5.386c-.921,3.445-3.042,4.947-5.185,4.947C2.754,24.994-.454,21.735.054,16.631Zm5.577-3.876c-3.506.19-4.14,7.555-1.175,9.384C7.162,23.809,8.98,19.987,9,17.771c.019-1.773-1.1-5.02-3.255-5.02Q5.69,12.752,5.631,12.755Zm18.141,2.672C21.483,10.04,25.417,5.542,27.256.715A2.12,2.12,0,0,1,28.667,0,1.946,1.946,0,0,1,30.475,1.1c1.244,2.151,3.975,8.411,3.991,10.733.03,4.4-2.927,7.427-5.894,7.427C26.744,19.257,24.913,18.109,23.773,15.427Zm4.24-8.316a3.063,3.063,0,0,0-1.2.958,6.53,6.53,0,0,0-.168,7.469c2.2,2.761,4.882.261,5.209-2.427.271-2.222-.452-6.085-3.126-6.085A3.211,3.211,0,0,0,28.013,7.111ZM11.166,10.994c.158-1.773,2.939-8.164,3.926-9.84A2.1,2.1,0,0,1,16.866.029c1.353,0,1.715,1.174,2.216,2.177,1.86,3.724,4.357,8.278,3.055,12.461-.986,3.17-3.022,4.551-5.078,4.551C13.913,19.218,10.721,15.987,11.166,10.994Zm5.074-3.88c-1.922.4-2.731,3.668-2.6,5.349.343,4.569,4.894,6.169,6.191,1.221.588-2.243-.148-6.636-2.964-6.637A3.05,3.05,0,0,0,16.24,7.115Z" transform="translate(0.504 0.5)" fill="#654D26" stroke="rgba(0,0,0,0)" stroke-miterlimit="10" stroke-width="1"/>
</svg>
