<svg xmlns="http://www.w3.org/2000/svg" width="45.729" height="45.781" viewBox="0 0 45.729 45.781">
  <path id="abicon2" d="M6.54,39.156A7.793,7.793,0,0,1,.031,32.264C-.3,28.473,2.1,19.544,3.975,16.158c1.892-3.417,4.5-4.452,6.888-.738.517.8.809,1.8,1.257,2.511.066.1-.006.178.229.13A55.13,55.13,0,0,1,16,6.883c3.013-6.43,7.658-10.39,12.432-2.51,2.48,4.093,3.917,9.156,5.014,13.79a6.049,6.049,0,0,0,.8-1.6c1.266-2.47,3.612-5.069,6.238-2.329,2.713,2.832,4.831,11.88,5.194,15.8.383,4.13-1.256,7.5-5.324,8.841a3.74,3.74,0,0,0-1.1.33v4.331h5.452a1.172,1.172,0,0,1,.961.77c.149.866-.191,1.376-1.063,1.473L.929,45.735A1.119,1.119,0,0,1,.32,43.892a2.049,2.049,0,0,1,.768-.353H6.54Zm17.427-2.14A9.9,9.9,0,0,0,32.5,29.19c.537-2.909-.3-6.8-.937-9.7-.946-4.343-3.636-13.947-7.195-16.653-1.389-1.056-2.4-.63-3.557.5-3.864,3.789-6.88,15.936-7.528,21.314C12.621,30.127,14.69,35.4,20.5,36.762c.361.085,1.047.3,1.325.1V34.316c0-.264-2.8-2.819-3.165-3.256a1.121,1.121,0,0,1,.958-1.651c.887.027,1.506,1.251,2.207,1.7V27.691c-.5-.739-3.011-2.654-3.215-3.306a1.118,1.118,0,0,1,.305-1.234c1.126-.991,2.088.888,2.91,1.432V20.354c0-.31.73-.772,1.072-.768.381,0,1.068.483,1.068.87v4.127c.822-.545,1.784-2.423,2.91-1.432a1.121,1.121,0,0,1,.305,1.234l-3.215,3.306v3.414c.774-.493,1.44-1.941,2.5-1.639a1.064,1.064,0,0,1,.742,1.363l-3.239,3.384Zm-15.185-.1a5.474,5.474,0,0,0,3.345-2.209c.942-1.414.352-1.317-.2-2.614a13.111,13.111,0,0,1-1-6.03,31.838,31.838,0,0,0,.436-3.7,20.529,20.529,0,0,0-2.728-6.343c-.515-.605-.9-1.043-1.631-.406C4.732,17.6,2.752,26.474,2.376,29.54c-.258,2.1-.349,3.881,1.11,5.588A5.356,5.356,0,0,0,6.54,36.914V32.481a1.5,1.5,0,0,1,.574-.751,1.141,1.141,0,0,1,1.668.955Zm30.472,0c3.067-.717,4.459-3.11,4.285-6.17-.2-3.449-2.216-12.036-4.389-14.669-.54-.654-.93-1.112-1.694-.425-1.029.926-2.86,5.312-3.053,6.689-.113.8.424,3,.468,4.028a13.07,13.07,0,0,1-1.8,7.235,5.372,5.372,0,0,0,3.937,3.312V32.481a3.95,3.95,0,0,1,.3-.511,1.072,1.072,0,0,1,1.586-.055,2.439,2.439,0,0,1,.352.667ZM21.827,39.156a11.668,11.668,0,0,1-7.593-3.667,7.979,7.979,0,0,1-5.452,3.667v4.382H21.827Zm15.185,0a7.838,7.838,0,0,1-5.452-3.667,11.845,11.845,0,0,1-7.593,3.667v4.382H37.012Z" transform="translate(0 0)" fill="#654D26"/>
</svg>
