<svg xmlns="http://www.w3.org/2000/svg" width="44.084" height="51.024" viewBox="0 0 44.084 51.024">
  <path id="abicon3" d="M12.677,48.461a11.487,11.487,0,0,1-3.5.577A8.788,8.788,0,0,1,3,46.6,9.805,9.805,0,0,1,.113,41.012a9.132,9.132,0,0,1,1.105-6.037,9.861,9.861,0,0,1,5.63-4.252,15.4,15.4,0,0,1,5.036-6.943A14.313,14.313,0,0,1,19.8,20.7v-2.19a9.371,9.371,0,0,1-1.306.09,12.147,12.147,0,0,1-7.6-2.942,12.733,12.733,0,0,1-2.725-3.149A10.327,10.327,0,0,1,6.751,8.706l-.005-.033c-.172-1.123-.275-1.8.077-2.279.268-.364.772-.571,1.738-.715a9.2,9.2,0,0,1,1.363-.1,12.535,12.535,0,0,1,11.054,7.545A9.354,9.354,0,0,1,28.493,8.9a8.652,8.652,0,0,1,.886.047c.595.061,1.7.175,1.738,1.383a7.3,7.3,0,0,1-1.354,4.135A9.748,9.748,0,0,1,26.6,17.47a9.961,9.961,0,0,1-3.212,1.13H21.847v1.993a15.952,15.952,0,0,1,6.747,1.893,9.149,9.149,0,0,1,6.131-2.333,9.3,9.3,0,0,1,9.36,9.332,9.394,9.394,0,0,1-3.8,7.494A9.206,9.206,0,0,1,36.2,38.675a15.054,15.054,0,0,1-5.456,8.968,15.631,15.631,0,0,1-9.669,3.381A15.068,15.068,0,0,1,12.677,48.461Zm1.379-23.71a12.908,12.908,0,0,0-4.874,5.585,9.394,9.394,0,0,1,5.725,1.933,9.492,9.492,0,0,1,3.23,4.651,9.155,9.155,0,0,1-3.358,10.331A12.252,12.252,0,0,0,21.108,49h0a13.522,13.522,0,0,0,8.259-2.872,12.716,12.716,0,0,0,4.675-7.385,8.956,8.956,0,0,1-4.59-1.589,9.39,9.39,0,0,1-3.075-3.65,9.5,9.5,0,0,1-.915-4.754,9.11,9.11,0,0,1,1.675-4.643,12.114,12.114,0,0,0-5.858-1.5A13.409,13.409,0,0,0,14.056,24.752ZM8.509,32.466a7.116,7.116,0,0,0-3.694,1.481,7.469,7.469,0,0,0-2.733,6.811,7.219,7.219,0,0,0,7.177,6.223,7.278,7.278,0,0,0,.029-14.556C9.03,32.426,8.768,32.44,8.509,32.466ZM34,22.226A7.143,7.143,0,0,0,30.311,23.7a7.471,7.471,0,0,0-2.779,6.745,7.146,7.146,0,0,0,1.582,3.649,7.284,7.284,0,1,0,5.664-11.906C34.52,22.186,34.258,22.2,34,22.226ZM8.743,7.717c-.028.029-.131.22.176,1.381l.014.054a10.841,10.841,0,0,0,8.583,7.406,6.792,6.792,0,0,0,.689.029c.25,0,.51-.007.762-.014s.469-.014.686-.014l.041-.025c.028-.016.057-.034.086-.05a9.138,9.138,0,0,0-2.5-5.409,10.658,10.658,0,0,0-5.248-3.166A10.879,10.879,0,0,0,9.722,7.6,3.443,3.443,0,0,0,8.743,7.717Zm17.262,3.739a7.141,7.141,0,0,0-4.137,5.1h1.408c.089-.006.693-.179.986-.271,2.12-.665,4.476-2.869,4.683-5.312H27.419C27.284,10.992,26.241,11.354,26.006,11.455Zm-6.44,35.112a1.087,1.087,0,0,1-.94-1.127c.046-.428.439-.931,1.392-.893.281.012.553.017.812.017,3.176,0,5.29-.885,7.069-2.958a5.969,5.969,0,0,0,.392-.569c.439-.684.986-1.535,1.636-1.535a.908.908,0,0,1,.67.341c.677.74-.234,1.934-.724,2.577l-.059.077a11.458,11.458,0,0,1-8.6,4.241A7.808,7.808,0,0,1,19.565,46.567ZM8.726,46.02a1.014,1.014,0,0,1-.453-1.071,1.171,1.171,0,0,0,0-.241c-.059-.03-.21-.088-.343-.14a5.62,5.62,0,0,1-1.364-.675,3.017,3.017,0,0,1-.975-2.61.855.855,0,0,1,.9-.548H6.5c.808.005.94.55,1.048.988a1.192,1.192,0,0,0,.25.587,2.259,2.259,0,0,0,1.494.47,1.994,1.994,0,0,0,1.522-.54.785.785,0,0,0,.147-.693c-.122-.561-1.465-.783-2.353-.93a7.88,7.88,0,0,1-.9-.179,3.26,3.26,0,0,1-1.753-1.173,2.515,2.515,0,0,1-.459-1.688,3.008,3.008,0,0,1,.849-1.829,3.386,3.386,0,0,1,1.889-.978,1.657,1.657,0,0,1,.315-1.2.9.9,0,0,1,.709-.348,1.211,1.211,0,0,1,.558.151A1,1,0,0,1,10.3,34.39c0,.147,0,.3.055.341a4.237,4.237,0,0,0,.44.172,5.622,5.622,0,0,1,.7.283,2.911,2.911,0,0,1,1.53,2.035,1.46,1.46,0,0,1-.261,1.147.9.9,0,0,1-.7.29,1.6,1.6,0,0,1-.345-.041c-.558-.125-.637-.545-.7-.881a1.4,1.4,0,0,0-.125-.426,1.74,1.74,0,0,0-1.543-.645,2.153,2.153,0,0,0-1.655.613.708.708,0,0,0-.106.66c.127.43,1.489.713,2.482.919a8.375,8.375,0,0,1,1.487.387,2.461,2.461,0,0,1,1.478,2.75,3.352,3.352,0,0,1-2.708,2.744,1.585,1.585,0,0,1-.316,1.138.869.869,0,0,1-.679.323A1.259,1.259,0,0,1,8.726,46.02Zm25.3-10.406a1.46,1.46,0,0,1-.307-1.122,3.918,3.918,0,0,1-2.363-1.628,2.09,2.09,0,0,1-.305-1.743,1.01,1.01,0,0,1,.975-.608.967.967,0,0,1,.285.041,1.119,1.119,0,0,1,.716.941,1.207,1.207,0,0,0,.261.575,2.1,2.1,0,0,0,1.437.464,2.039,2.039,0,0,0,1.619-.608.723.723,0,0,0,.084-.689c-.146-.431-.983-.588-1.868-.753-1.378-.257-3.092-.578-3.46-2.105a3.108,3.108,0,0,1,.132-2.073A3.18,3.18,0,0,1,32.7,24.869c.106-.056.319-.135.544-.22.167-.062.415-.154.489-.194a.79.79,0,0,0,.024-.3,1.063,1.063,0,0,1,.311-.915,1.027,1.027,0,0,1,.689-.247,1.05,1.05,0,0,1,.742.285,1.8,1.8,0,0,1,.3,1.243,3.251,3.251,0,0,1,2.689,2.372,1.529,1.529,0,0,1-.242,1.242,1.041,1.041,0,0,1-1.764-.631,1.173,1.173,0,0,0-.284-.617,2.133,2.133,0,0,0-1.439-.457,2.011,2.011,0,0,0-1.57.576.747.747,0,0,0-.1.693c.143.477,1.585.74,2.446.9a8.814,8.814,0,0,1,.942.2,2.657,2.657,0,0,1,2.072,2.747,3.367,3.367,0,0,1-2.726,2.948A1.5,1.5,0,0,1,35.5,35.6a1,1,0,0,1-.747.347A.958.958,0,0,1,34.026,35.614ZM13.19,29.454c-.4-.769.241-1.332.713-1.744l.125-.11a11.353,11.353,0,0,1,6-2.623c.262-.024.663-.039,1.076-.039,1.058,0,2.9.088,3.318.68a1.055,1.055,0,0,1,.043,1.156.972.972,0,0,1-.91.446,4.493,4.493,0,0,1-.91-.132,4.27,4.27,0,0,0-.578-.1c-.227-.014-.455-.021-.68-.021a9.051,9.051,0,0,0-5.26,1.582,5.413,5.413,0,0,0-.534.466c-.5.472-1.068,1.007-1.611,1.007A.9.9,0,0,1,13.19,29.454ZM20.03,9.308a6.605,6.605,0,0,1,.609-5.771,6.59,6.59,0,0,1,4.6-3.508,3.079,3.079,0,0,1,.4-.029c1.1,0,1.321.762,1.51,1.84a7.368,7.368,0,0,1-1.034,4.9,6.76,6.76,0,0,1-3.861,3.17l-.05.013a4.242,4.242,0,0,1-1.058.2A1.159,1.159,0,0,1,20.03,9.308Zm2.431-4.871a5.594,5.594,0,0,0-.75,3.47,4.938,4.938,0,0,0,2.7-2.24A5.708,5.708,0,0,0,25.164,2.2,4.912,4.912,0,0,0,22.461,4.437Z" fill="#654D26"/>
</svg>
